<?xml version="1.0" encoding="utf-8"?>
<!-- Generator: Adobe Illustrator 22.0.1, SVG Export Plug-In . SVG Version: 6.00 Build 0)  -->
<svg version="1.1" id="medicamentos" xmlns="http://www.w3.org/2000/svg" xmlns:xlink="http://www.w3.org/1999/xlink" x="0px" y="0px"
	 viewBox="0 0 64 64" style="enable-background:new 0 0 64 64;" xml:space="preserve">
<g>
	<path d="M34.2,30.4c-1.8-1.8-4.8-1.8-6.7,0c-1.8,1.8-1.8,4.8,0,6.7c0.9,0.9,2.1,1.4,3.3,1.4c1.2,0,2.4-0.5,3.3-1.4
		C36,35.3,36,32.3,34.2,30.4z M29,31.9c0.5-0.5,1.2-0.8,1.9-0.8c0.3,0,0.7,0.1,1,0.2l-3.5,3.5C28,33.8,28.2,32.7,29,31.9z
		 M32.8,35.7c-0.8,0.8-1.9,1-2.9,0.6l3.5-3.5C33.7,33.7,33.5,34.9,32.8,35.7z M33.8,44.4c-1.4-2.2-4.3-2.8-6.5-1.4h0
		c-2.2,1.4-2.8,4.3-1.4,6.5c0.9,1.4,2.4,2.1,4,2.1c0.9,0,1.8-0.2,2.6-0.8C34.6,49.5,35.2,46.6,33.8,44.4z M32.1,45.5
		c0.6,0.9,0.6,2.1,0,3l-2.7-4.1C30.4,44.1,31.5,44.6,32.1,45.5z M27.6,48.4c-0.6-0.9-0.6-2.1,0-3l2.7,4.1
		C29.3,49.8,28.2,49.3,27.6,48.4z M23.1,36.8c-1.1-0.7-2.3-0.9-3.6-0.6c-1.2,0.3-2.3,1-2.9,2.1c-1.4,2.2-0.7,5.1,1.5,6.5
		c0.8,0.5,1.7,0.7,2.5,0.7c1.6,0,3.1-0.8,4-2.2C26,41.1,25.3,38.2,23.1,36.8z M20,38.2c0.2,0,0.4-0.1,0.6-0.1c0.5,0,1,0.1,1.4,0.4
		c0.9,0.6,1.4,1.7,1.2,2.7l-4.2-2.6C19.4,38.4,19.7,38.3,20,38.2z M19.2,43.1c-0.9-0.6-1.4-1.7-1.2-2.7l4.2,2.6
		C21.3,43.6,20.1,43.7,19.2,43.1z M52,46.3V26.9c0-3-2.1-5.1-5.1-5.1h-4.1v-2h3.1V9.5H27.4v6.1H17.1v8.2h3.1v1h-3.1
		c-3,0-5.1,2.1-5.1,5.1v24.6h28.7v-2H52l-2-2h-2h-7.2v-6.1h9.2v2H52z M29.4,11.5h14.3v6.1h-8.2v-2h-6.1V11.5z M19.2,17.7h14.3v4.1
		H19.2V17.7z M38.7,52.5H14.1V30c0-1.9,1.2-3.1,3.1-3.1h5.1v-3h8.2v3h5.1c1.9,0,3.1,1.2,3.1,3.1V52.5z M35.6,24.8h-3.1v-1h3.1v-4.1
		h5.1v4.1h6.1c1.9,0,3.1,1.2,3.1,3.1V30h-9.2C40.7,26.9,38.6,24.8,35.6,24.8z M40.7,42.2V32h9.2v10.2H40.7z"/>
</g>
</svg>
