<?xml version="1.0" encoding="utf-8"?>
<!-- Generator: Adobe Illustrator 22.0.1, SVG Export Plug-In . SVG Version: 6.00 Build 0)  -->
<svg version="1.1" id="Camada_1" xmlns="http://www.w3.org/2000/svg" xmlns:xlink="http://www.w3.org/1999/xlink" x="0px" y="0px"
	 viewBox="0 0 72 72" style="enable-background:new 0 0 72 72;" xml:space="preserve">
<g>
	<path d="M36.6,70.5c-2.5,0-4.8-0.8-6.7-2.5c-2-1.7-3-4.1-3-7.1c0-2.6,0.9-4.9,2.8-6.7c1.8-1.8,4.1-2.8,6.8-2.8
		c2.6,0,4.9,0.9,6.8,2.8c1.9,1.8,2.8,4.1,2.8,6.7c0,2.9-1,5.3-2.9,7C41.3,69.6,39.1,70.5,36.6,70.5z M36.4,54.4
		c-1.9,0-3.4,0.6-4.7,1.9c-1.3,1.3-1.9,2.8-1.9,4.6c0,2.1,0.6,3.7,1.9,4.8c1.4,1.2,2.9,1.8,4.7,1.8c1.8,0,3.3-0.6,4.6-1.8
		c1.3-1.1,1.9-2.7,1.9-4.8c0-1.8-0.6-3.3-1.9-4.6C39.9,55.1,38.3,54.4,36.4,54.4z"/>
</g>
<path d="M18.5,15.1c1.2-2.1,2.6-3.9,4.3-5.4c4-3.4,8.9-5.2,14.7-5.2c5.9,0,10.9,1.7,14.9,5.1c3.9,3.4,5.9,7.5,5.9,12.7
	c0,6.4-3.3,11.7-10,16.1c-3.4,2.2-5.3,3.9-6.1,5.3c-0.7,1.3-1.1,2.6-1.1,4.8h-9.3v-0.3c0-5.1,0.4-8.1,1.1-9.4
	c0.6-0.9,2.2-2.7,6.8-6.1c2.2-1.6,3.7-3.1,4.6-4.6c0.9-1.5,1.4-3.4,1.4-5.6c0-2.8-0.9-5-2.7-6.7c-1.8-1.6-3.9-2.4-6.4-2.4
	c-3.9,0-8.8,1.8-10.5,10H15.7c0,0,0,0,0,0h-3c-0.1,0.4-0.2,0.9-0.2,1.3l-0.2,1.7h16.3l0.2-1.3c1.2-7.8,5-8.7,7.8-8.7
	c1.8,0,3.2,0.5,4.4,1.6c1.2,1.1,1.8,2.5,1.8,4.4c0,1.6-0.3,3-1,4c-0.7,1.1-2,2.4-3.9,3.8c-4.1,3-6.6,5.3-7.6,7
	c-1.1,1.9-1.6,5-1.6,10.9v3.3H44v-1.5c0-2.9,0.3-4,0.8-4.8c0.3-0.5,1.4-1.8,5.1-4.3c7.5-4.9,11.3-11.2,11.3-18.6
	c0-6-2.3-11-6.9-14.9c-4.5-3.8-10.2-5.8-16.8-5.8c-6.5,0-12.1,2-16.7,5.9c-2.9,2.5-5.1,5.9-6.6,9.9"/>
</svg>
