<?xml version="1.0" encoding="utf-8"?>
<!-- Generator: Adobe Illustrator 22.0.1, SVG Export Plug-In . SVG Version: 6.00 Build 0)  -->
<svg xmlns="http://www.w3.org/2000/svg">
	<symbol id="telefone" viewBox="0 0 64 64">
		<path d="M18.5,27.1c0,0.1-3.7,7.6,3.6,14.8c7.3,7.3,14.8,3.6,14.8,3.6l0.3-0.2l3-6l12.4,9.3l0.9,0.7c0.5-0.4,1.1-0.9,1.6-1.4
			l-0.9-0.7l0,0l-14.6-11l-3.8,7.6c-1.3,0.5-6.7,2.1-12.2-3.3C18,35,19.7,29.6,20.2,28.3l7.6-3.8L17.2,10.4l-1.1-1.5
			C11.5,14,8.9,20.6,8.9,27.5c0,7.4,2.9,14.3,8.1,19.5c5.4,5.4,12.4,8.1,19.5,8.1c3.2,0,6.4-0.6,9.4-1.6l1.3-2.7
			c-9.4,4.3-21,2.6-28.7-5.2c-4.8-4.8-7.5-11.2-7.5-18.1c0-5.6,1.8-10.9,5.1-15.3l8.6,11.5l-6,3L18.5,27.1z"/>
	</symbol>
	<symbol id="ambulancia" viewBox="0 0 64 64">
		<path d="M16.1,50.9H7.4v-2h8.6V50.9z M35.1,23.3H23.3l-9.8,12.3h21.6V23.3z M24.3,25.3H33v8.2H17.7L24.3,25.3z M46.3,24.3h-4.1v10.2
			h4.1V24.3z M49.4,31.5v-4.1H39.2v4.1H49.4z M56.6,18.1v2v28.7v2h-5.2c-0.5,2.9-3,5.1-6.1,5.1s-5.6-2.2-6.1-5.1H26.8
			c-0.5,2.9-3,5.1-6.1,5.1c-3.4,0-6.1-2.8-6.1-6.1c0-3.4,2.8-6.1,6.1-6.1c3,0,5.6,2.2,6.1,5.1h12.5c0.5-2.9,3-5.1,6.1-5.1
			s5.6,2.2,6.1,5.1h3.2V20.2H21.5l-12,15.4v15.3h-2V36.6v-1.7v0l0.1-0.1l0.2-0.3h0l12.7-16.4h0.1h1.2h4.1v-2H30v2H56.6z M24.8,49.9
			c0-2.3-1.8-4.1-4.1-4.1s-4.1,1.8-4.1,4.1s1.8,4.1,4.1,4.1S24.8,52.2,24.8,49.9z M49.4,49.9c0-2.3-1.8-4.1-4.1-4.1s-4.1,1.8-4.1,4.1
			s1.8,4.1,4.1,4.1S49.4,52.2,49.4,49.9z M38.9,10.6l-1.5-1.4l-4.1,4.1l1.5,1.4L38.9,10.6z M22.5,13.4l-4.1-4.1l-1.5,1.4l4.1,4.1
			L22.5,13.4z M28.9,8l-2,0l0,5.8l2,0L28.9,8z"/>
	</symbol>
	<symbol id="anotacoes" viewBox="0 0 64 64">
		<path d="M49.4,46.3H20.7V17.7h4.1v4.1h20.5v-4.1h4.1l2-2h-6.1v-4.1h-2v-2H26.9v2h-2v4.1h-6.1v2v28.7v2v4.1v2h2h28.7h2v-2v-4.1v-2
			V21.8h-2V46.3z M26.9,13.6h2v-2h12.3v2h2v6.1H26.9V13.6z M49.4,52.5H20.7v-4.1h28.7V52.5z M39.2,15.6H31v-2h8.2V15.6z M14.6,50.4h-2
			V25.9l1-2l1,2V50.4z M45.3,27.9H24.8v-2h20.5V27.9z M45.3,34H24.8v-2h20.5V34z M45.3,40.2H24.8v-2h20.5V40.2z"/>
	</symbol>
	<symbol id="cardapio" viewBox="0 0 28 28">
		<path class="st0" d="M11.4,7.6h-1V6c0-0.4,0.2-0.8,0.5-1.1l0.4-0.4c0.1-0.1,0.2-0.2,0.2-0.4V2.5h1v1.6c0,0.4-0.2,0.8-0.5,1.1
			l-0.4,0.4c-0.1,0.1-0.2,0.2-0.2,0.4V7.6z M23.8,7.4c0-0.1,0.1-0.3,0.2-0.4l0.4-0.4c0.3-0.3,0.5-0.7,0.5-1.1V3.9h-1v1.6
			c0,0.1-0.1,0.3-0.2,0.4l-0.4,0.4c-0.3,0.3-0.5,0.7-0.5,1.1V9h1V7.4z M19.6,6c0-0.1,0.1-0.3,0.2-0.4l0.4-0.4c0.3-0.3,0.5-0.7,0.5-1.1
			V2.5h-1v1.6c0,0.1-0.1,0.3-0.2,0.4l-0.4,0.4c-0.3,0.3-0.5,0.7-0.5,1.1v1.6h1V6z M7.6,7c0-0.1,0.1-0.3,0.2-0.4l0.4-0.4
			c0.3-0.3,0.5-0.7,0.5-1.1V3.5h-1v1.6c0,0.1-0.1,0.3-0.2,0.4L7.1,5.9C6.8,6.2,6.6,6.6,6.6,7v1.6h1V7z M24.8,18.9
			c-1.5,3.9-5.8,6.7-10.8,6.7c-5.9,0-10.7-3.8-11.3-8.7h0v-1h1.7c0.3-1.4,1.3-2.6,2.6-3.2L2.7,8.4l0.7-0.7l4.6,4.6
			c0.3,0,0.5-0.1,0.8-0.1c0.6,0,1.1,0.1,1.7,0.3c0.6-2.6,2.8-4.4,5.5-4.4c2.8,0,5.2,2.1,5.6,4.8c1,0.7,1.7,1.7,2,2.8h1.7l-1.1,1h0h0
			h-0.5h-1h-2.6H5.3h-1H3.8c0.6,4.3,5,7.7,10.2,7.7c4.4,0,8.2-2.3,9.6-5.6H24.8z M9,13.2l2.6,2.6h11c-0.3-0.9-0.8-1.6-1.7-2.1
			l-0.2-0.1l0-0.3c-0.2-2.4-2.2-4.2-4.6-4.2c-2.4,0-4.4,1.8-4.6,4.2l-0.1,0.8l-0.7-0.4C10.2,13.4,9.6,13.3,9,13.2z M5.4,15.8h4.7
			l-2.4-2.4C6.6,13.8,5.8,14.7,5.4,15.8z"/>
	</symbol>
	<symbol id="comida" viewBox="0 0 64 64">
		<path d="M26.9,19.2h-2v-3.2c0-0.8,0.3-1.6,0.9-2.2l0.8-0.8c0.2-0.2,0.3-0.5,0.3-0.7V9h2v3.2c0,0.8-0.3,1.6-0.9,2.2l-0.8,0.8
			c-0.2,0.2-0.3,0.5-0.3,0.7V19.2z M51.5,18.8c0-0.3,0.1-0.5,0.3-0.7l0.8-0.8c0.6-0.6,0.9-1.4,0.9-2.2v-3.2h-2v3.2
			c0,0.3-0.1,0.5-0.3,0.7l-0.8,0.8c-0.6,0.6-0.9,1.4-0.9,2.2v3.2h2V18.8z M43.3,15.9c0-0.3,0.1-0.5,0.3-0.7l0.8-0.8
			c0.6-0.6,0.9-1.4,0.9-2.2V9h-2v3.2c0,0.3-0.1,0.5-0.3,0.7l-0.8,0.8c-0.6,0.6-0.9,1.4-0.9,2.2v3.2h2V15.9z M19.3,18
			c0-0.3,0.1-0.5,0.3-0.7l0.8-0.8c0.6-0.6,0.9-1.4,0.9-2.2V11h-2v3.2c0,0.3-0.1,0.5-0.3,0.7l-0.8,0.8c-0.6,0.6-0.9,1.4-0.9,2.2v3.2h2
			V18z M53.5,41.7C50.5,49.5,42,55,32,55c-11.7,0-21.3-7.6-22.5-17.4h0v-2h3.3c0.6-2.8,2.6-5.2,5.2-6.3l-8.5-8.5l1.4-1.4l9.3,9.3
			c0.5-0.1,1-0.1,1.6-0.1c1.1,0,2.3,0.2,3.3,0.6c1.1-5.1,5.6-8.8,11-8.8c5.7,0,10.4,4.1,11.2,9.7c2,1.3,3.4,3.4,4,5.7h3.3l-2.1,2h0h0
			h-1h-2h-5.1H14.6h-2h-1C12.8,46.3,21.5,53,32,53c8.8,0,16.3-4.7,19.3-11.3H53.5z M22.1,30.5l5.1,5.1h21.9c-0.5-1.7-1.7-3.3-3.3-4.2
			l-0.5-0.3l-0.1-0.5c-0.4-4.8-4.4-8.3-9.2-8.3c-4.8,0-8.8,3.6-9.2,8.4l-0.1,1.6l-1.4-0.8C24.4,30.9,23.3,30.5,22.1,30.5z M14.9,35.6
			h9.4l-4.8-4.8C17.3,31.6,15.6,33.3,14.9,35.6z"/>
	</symbol>
	<symbol id="correio" viewBox="0 0 64 64">
		<g>
			<path d="M53.5,20.7v0.6L32,36.9L10.5,21.3v-4.7h41h2l0,0l2-2H8.4v34.9h47.1V20.7H53.5z M10.5,23.8l14,10.2l-14,11.7V23.8z
				M11.7,47.4l14.5-12.2l5.8,4.2l5.8-4.2l14.5,12.2H11.7z M53.5,45.7L39.5,34l14-10.2V45.7z"/>
			<path d="M53.5,20.7v0.6L32,36.9L10.5,21.3v-4.7h41h2l0,0l2-2H8.4v34.9h47.1V20.7H53.5z M10.5,23.8l14,10.2l-14,11.7V23.8z
				M11.7,47.4l14.5-12.2l5.8,4.2l5.8-4.2l14.5,12.2H11.7z M53.5,45.7L39.5,34l14-10.2V45.7z"/>
		</g>
	</symbol>
	<symbol id="endereco" viewBox="0 0 64 64">
		<g>
			<g>
				<path d="M49.4,55.8H28.9V41.5h-6.1v14.3h-8.2V33.3H9.2L32,8.2l22.8,25.1h-5.4V55.8z M31,53.8h16.4V31.2h2.8L32,11.2l-18.2,20h2.8
					v22.5h4.1V39.4H31V53.8z"/>
			</g>
			<g>
				<path d="M43.3,49.7h-8.2V39.4h8.2V49.7z M37.1,47.6h4.1v-6.1h-4.1V47.6z"/>
			</g>
		</g>
	</symbol>
	<symbol id="exame" viewBox="0 0 64 64">
		<path d="M50.4,20.7c0,0.6-0.5,1-1,1c-0.6,0-1-0.5-1-1s0.5-1,1-1C50,19.7,50.4,20.2,50.4,20.7z M49.4,23.8c-0.6,0-1,0.5-1,1
			c0,0.6,0.5,1,1,1c0.6,0,1-0.5,1-1C50.4,24.3,50,23.8,49.4,23.8z M52.5,19.7h2v22.5v2h-2h-2v4.1v2h-2H15.6h-2v-2v-4.1h-2h-2v-2V15.6
			v-2h45.1l-2,2h-6.1v26.6h6.1V19.7z M11.5,23.8H17l2.7-5.4l2.7,5.4h3.9l1.5,1.5l4.4-6.6l2.6,5.1h3.9l1.6,1.6l1.6-1.6h2.5v-8.2H11.5
			V23.8z M11.5,35.1H17l2.7-5.4l2.7,5.4h3.9l1.5,1.5l4.4-6.6l2.6,5.1h3.9l1.6,1.6l1.6-1.6h2.5v-9.2h-1.6l-2.5,2.5l-2.5-2.5h-4.3
			l-1.5-3.1l-3.8,5.7l-2.6-2.6h-4.3L19.7,23l-1.4,2.8h-6.8V35.1z M44.3,42.2v-5.1h-1.6l-2.5,2.5l-2.5-2.5h-4.3L31.9,34l-3.8,5.7
			l-2.6-2.6h-4.3l-1.4-2.8l-1.4,2.8h-6.8v5.1H44.3z M48.4,44.3h-2h-2H15.6v4.1h32.8V44.3z"/>
	</symbol>
	<symbol id="globo" viewBox="0 0 64 64">
		<path d="M47.4,14.2l0.3,3.1c1.3,1.4,2.5,3.1,3.4,4.8c-2.6,0.8-5.4,1.4-8.3,1.8c-0.4-4.1-1.2-8.1-2.3-11.7l-0.8-2.6
			c-2.4-0.8-5-1.3-7.7-1.3C19,8.4,8.4,19,8.4,32S19,55.6,32,55.6S55.6,45,55.6,32C55.6,24.9,52.4,18.5,47.4,14.2z M41.2,32
			c0,1.9-0.1,3.8-0.2,5.7c-2.9-0.4-5.9-0.6-9-0.6s-6.1,0.2-9,0.6c-0.1-1.9-0.2-3.7-0.2-5.7s0.1-3.8,0.2-5.7c2.9,0.4,5.9,0.6,9,0.6
			s6.1-0.2,9-0.6C41.1,28.2,41.2,30.1,41.2,32z M32,10.5c2.1,0,4.2,0.3,6.1,0.9c1.3,3.9,2.2,8.3,2.7,12.9C38,24.6,35,24.8,32,24.8
			s-6-0.2-8.8-0.5c0.5-4.6,1.4-9,2.7-12.9C27.8,10.8,29.9,10.5,32,10.5z M23.5,12.2c-1.1,3.6-1.9,7.6-2.4,11.8
			c-2.9-0.4-5.7-1.1-8.3-1.8C15.1,17.8,18.9,14.2,23.5,12.2z M10.5,32c0-2.8,0.5-5.5,1.5-8c2.8,0.9,5.8,1.5,8.9,2
			c-0.2,1.9-0.2,3.9-0.2,6s0.1,4,0.2,6c-3.1,0.5-6.1,1.2-8.9,2C11,37.5,10.5,34.8,10.5,32z M12.9,41.8c2.6-0.8,5.4-1.4,8.3-1.8
			c0.5,4.2,1.3,8.1,2.4,11.8C18.9,49.8,15.2,46.2,12.9,41.8z M32,53.5c-2.1,0-4.2-0.3-6.1-0.9c-1.3-3.9-2.2-8.3-2.7-12.9
			c2.8-0.3,5.8-0.5,8.8-0.5s6,0.2,8.8,0.5c-0.5,4.6-1.4,9-2.7,12.9C36.2,53.2,34.1,53.5,32,53.5z M40.5,51.8c1.1-3.6,1.9-7.6,2.4-11.8
			c2.9,0.4,5.7,1.1,8.3,1.8C48.9,46.2,45.1,49.8,40.5,51.8z M43,38c0.2-1.9,0.2-3.9,0.2-6s-0.1-4-0.2-6c3.1-0.5,6.1-1.2,8.9-2
			c1,2.5,1.5,5.2,1.5,8S53,37.5,52,40C49.2,39.1,46.2,38.4,43,38z"/>
	</symbol>
	<symbol id="hemograma" viewBox="0 0 64 64">
		<path d="M30.5,33.7c-2.8,0-5.1-2.3-5.1-5.1c0-2.4,3.5-8.8,4.2-10.1l0.9-1.6l0.9,1.6c0.7,1.3,4.2,7.7,4.2,10.1
			C35.6,31.4,33.3,33.7,30.5,33.7z M30.5,21.2c-1.4,2.7-3.1,6.2-3.1,7.4c0,1.7,1.4,3.1,3.1,3.1c1.7,0,3.1-1.4,3.1-3.1
			C33.6,27.4,32,23.9,30.5,21.2z M18.7,26.3l-0.9-1.6l-0.9,1.6c-0.1,0.1-0.2,0.3-0.3,0.5c0,1.1,0.2,2.3,0.5,3.4
			c0.2-0.4,0.5-0.9,0.7-1.3c1.1,2,2.5,4.7,3.7,7.4c0.9,0.7,1.9,1.2,2.9,1.6C22.4,32.9,19.2,27.2,18.7,26.3z M24,42.7
			c0.1,0.5,0.2,0.9,0.2,1.2c0,3.5-2.8,6.4-6.4,6.4s-6.4-2.8-6.4-6.4c0-1.6,1.4-5,3-8.4c-0.5-0.7-0.9-1.5-1.2-2.3
			c-1.9,3.9-3.8,8.4-3.8,10.7c0,4.6,3.8,8.4,8.4,8.4s8.4-3.8,8.4-8.4c0-0.2,0-0.5-0.1-0.8C25.4,43.1,24.7,42.9,24,42.7z M54.6,48.4
			L41.4,35.1c1.7-2.5,2.5-5.4,2.5-8.5c0-4.1-1.6-8-4.5-10.9c-2.9-2.9-6.8-4.5-10.9-4.5c-4.1,0-8,1.6-10.9,4.5c-6,6-6,15.7,0,21.7
			c3,3,6.9,4.5,10.9,4.5c3,0,5.9-0.8,8.5-2.5l13.3,13.3L54.6,48.4z M19.1,36.1c-5.2-5.2-5.2-13.6,0-18.8c2.5-2.5,5.9-3.9,9.4-3.9
			s6.9,1.4,9.4,3.9s3.9,5.9,3.9,9.4c0,3.6-1.4,6.9-3.9,9.4C32.8,41.3,24.3,41.3,19.1,36.1z M39.4,37.5c0.2-0.2,0.5-0.5,0.7-0.8
			l11.6,11.6l-1.4,1.4L38.6,38.2C38.9,38,39.2,37.8,39.4,37.5z"/>
	</symbol>
	<symbol id="lavagemmaos" viewBox="0 0 64 64">
		<path d="M33.3,48.1H20.6c-0.4,0-0.8-0.1-1.2-0.4l-4.9-3.3c-0.5-0.3-1-0.5-1.5-0.5h-3v-2h3c0.9,0,1.9,0.3,2.7,0.8l4.9,3.3l12.8,0
			c0.6,0,1.1-0.2,1.5-0.5l8.3-6.6c0,0,0-0.1,0.1-0.1c0,0,0-0.1,0-0.1l-0.5-0.5c0,0-0.1,0-0.1,0l-8,4.8c-1.2,0.7-2.5,0.9-3.9,0.7
			L23,42.2c-1-0.2-1.7-1.1-1.7-2.1c0-1.2,1-2.1,2.1-2.1h8c0.1,0,0.1,0,0.1-0.1c0,0,0-0.1-0.1-0.1l-8.1-1.9c-0.8-0.2-1.6-0.2-2.4-0.2
			H10v-2h11c0.9,0,1.9,0.1,2.8,0.3l8.1,1.9c1,0.2,1.7,1.1,1.7,2.1c0,1.2-1,2.2-2.1,2.2h-8c-0.1,0-0.1,0-0.1,0.1c0,0,0,0.1,0.1,0.1
			l7.7,1.5c0.8,0.2,1.7,0,2.4-0.4l8-4.8c0.8-0.5,1.9-0.4,2.6,0.3l0.5,0.5c0.4,0.4,0.7,1,0.6,1.7c0,0.6-0.3,1.2-0.8,1.6l-8.3,6.6
			C35.4,47.8,34.4,48.1,33.3,48.1z M37.6,30.5c0-1.2-1-5.1-3.1-5.1c-2.1,0-3.1,3.9-3.1,5.1c0,1.7,1.4,3.1,3.1,3.1
			C36.3,33.5,37.6,32.2,37.6,30.5z M35.6,30.5c0,0.6-0.5,1-1,1c-0.6,0-1-0.5-1-1c0-0.8,0.6-2.5,1-3C35,28,35.6,29.6,35.6,30.5z M52,53
			h-1h-1V20.2c0-4-3.2-7.2-7.2-7.2s-7.2,3.2-7.2,7.2v1h-2v-1c0-5.1,4.1-9.2,9.2-9.2s9.2,4.1,9.2,9.2v28.7h2V20.2C54,14,49,9,42.8,9
			S31.5,14,31.5,20.2v3.1h6.1v-3.1c0-2.8,2.3-5.1,5.1-5.1c2.8,0,5.1,2.3,5.1,5.1V55H54L52,53L52,53z"/>
	</symbol>
	<symbol id="medicamentos" viewBox="0 0 64 64">
		<path d="M34.2,30.4c-1.8-1.8-4.8-1.8-6.7,0c-1.8,1.8-1.8,4.8,0,6.7c0.9,0.9,2.1,1.4,3.3,1.4c1.2,0,2.4-0.5,3.3-1.4
			C36,35.3,36,32.3,34.2,30.4z M29,31.9c0.5-0.5,1.2-0.8,1.9-0.8c0.3,0,0.7,0.1,1,0.2l-3.5,3.5C28,33.8,28.2,32.7,29,31.9z
			M32.8,35.7c-0.8,0.8-1.9,1-2.9,0.6l3.5-3.5C33.7,33.7,33.5,34.9,32.8,35.7z M33.8,44.4c-1.4-2.2-4.3-2.8-6.5-1.4h0
			c-2.2,1.4-2.8,4.3-1.4,6.5c0.9,1.4,2.4,2.1,4,2.1c0.9,0,1.8-0.2,2.6-0.8C34.6,49.5,35.2,46.6,33.8,44.4z M32.1,45.5
			c0.6,0.9,0.6,2.1,0,3l-2.7-4.1C30.4,44.1,31.5,44.6,32.1,45.5z M27.6,48.4c-0.6-0.9-0.6-2.1,0-3l2.7,4.1
			C29.3,49.8,28.2,49.3,27.6,48.4z M23.1,36.8c-1.1-0.7-2.3-0.9-3.6-0.6c-1.2,0.3-2.3,1-2.9,2.1c-1.4,2.2-0.7,5.1,1.5,6.5
			c0.8,0.5,1.7,0.7,2.5,0.7c1.6,0,3.1-0.8,4-2.2C26,41.1,25.3,38.2,23.1,36.8z M20,38.2c0.2,0,0.4-0.1,0.6-0.1c0.5,0,1,0.1,1.4,0.4
			c0.9,0.6,1.4,1.7,1.2,2.7l-4.2-2.6C19.4,38.4,19.7,38.3,20,38.2z M19.2,43.1c-0.9-0.6-1.4-1.7-1.2-2.7l4.2,2.6
			C21.3,43.6,20.1,43.7,19.2,43.1z M52,46.3V26.9c0-3-2.1-5.1-5.1-5.1h-4.1v-2h3.1V9.5H27.4v6.1H17.1v8.2h3.1v1h-3.1
			c-3,0-5.1,2.1-5.1,5.1v24.6h28.7v-2H52l-2-2h-2h-7.2v-6.1h9.2v2H52z M29.4,11.5h14.3v6.1h-8.2v-2h-6.1V11.5z M19.2,17.7h14.3v4.1
			H19.2V17.7z M38.7,52.5H14.1V30c0-1.9,1.2-3.1,3.1-3.1h5.1v-3h8.2v3h5.1c1.9,0,3.1,1.2,3.1,3.1V52.5z M35.6,24.8h-3.1v-1h3.1v-4.1
			h5.1v4.1h6.1c1.9,0,3.1,1.2,3.1,3.1V30h-9.2C40.7,26.9,38.6,24.8,35.6,24.8z M40.7,42.2V32h9.2v10.2H40.7z"/>
	</symbol>
	<symbol id="medico" viewBox="0 0 64 64">
		<g>
			<g>
				<path d="M32,30c-5.6,0-10.2-4.6-10.2-10.2S26.4,9.5,32,9.5s10.2,4.6,10.2,10.2S37.6,30,32,30z M32,11.5c-4.5,0-8.2,3.7-8.2,8.2
					s3.7,8.2,8.2,8.2s8.2-3.7,8.2-8.2S36.5,11.5,32,11.5z"/>
			</g>
			<path d="M34,41.2c3.3,0,6.1-2.2,6.9-5.3c6.6,2.9,11,9.1,11.5,16.5H18.3l-2,2h38.3l0-1c-0.1-9-5.4-16.4-13.3-19.7V32h1v-2h-1h-1h-1
				v3.1c-2.3-0.7-4.7-1.1-7.3-1.1c-2.5,0-4.8,0.4-7,1V30h-1h-1h-1v2h1v1.7C14.9,37,9.6,44.4,9.5,53.5l0,1h2.1l0-2h0
				C12,44.9,16.5,38.8,23,35.9c0.8,3.1,3.6,5.3,6.9,5.3h1v3.9c0,0.2,0,0.3,0,0.5c0.1,1.4,0.9,2.6,2,3.3c0.8,0.5,1.7,0.8,2.7,0.8
				c0.5,0,1-0.1,1.5-0.2l3.3-1c0.7,1.2,2,2,3.5,2c2.3,0,4.1-1.8,4.1-4.1s-1.8-4.1-4.1-4.1s-4.1,1.8-4.1,4.1c0,0.1,0,0.1,0,0.2l-3.3,1
				c-0.8,0.2-1.7,0.1-2.4-0.3c-0.7-0.4-1.1-1.1-1.1-1.8c0-0.1,0-0.2,0-0.3v-3.9H34z M44,44.4c1.1,0,2,0.9,2,2c0,1.1-0.9,2-2,2
				c-1.1,0-2-0.9-2-2C42,45.3,42.9,44.4,44,44.4z M24.9,35.1c2.1-0.7,4.4-1.1,6.9-1.1c2.6,0,5,0.4,7.2,1.2c-0.5,2.3-2.6,4-5,4H30
				C27.5,39.2,25.4,37.4,24.9,35.1z"/>
		</g>
	</symbol>
	<symbol id="minhasaude" viewBox="0 0 28 28">
		<path class="st0" d="M22.9,3.5v1.4c1.4,1.3,2.2,3.2,2.2,5.4c0,4.3-3.8,7.4-6.8,9.9l-0.2,0.1c-2.5,2-3.2,2.8-3.9,3.6
			C14.1,24,14.1,24,14,24.1c-0.1-0.1-0.1-0.2-0.2-0.2c-0.7-0.8-1.4-1.6-3.9-3.6l-0.2-0.1c-2.3-1.9-5-4.1-6.2-6.9h5.6l1.5,4.5l2.2-6.6
			l2.2,6.5l2.3-5.8l0.7,1.4h2.6l1.1-1.1h-3l-1.5-3l-2.1,5.3l-2.3-6.8l-2.2,6.6L10,12.2H3.2c-0.2-0.6-0.3-1.3-0.3-1.9
			c0-3.2,1.8-5.9,4.4-6.7c0.5-0.1,0.9-0.2,1.4-0.2c1.8,0,3.5,1.1,4.8,3L14,7.1l0.5-0.7C16,4,18.3,2.9,20.6,3.6c0,0,0,0,0,0V2.4
			c-2.5-0.6-4.9,0.4-6.6,2.7c-1.8-2.4-4.4-3.4-7-2.6C4,3.4,1.8,6.6,1.8,10.3c0,4.8,4.2,8.3,7.2,10.8l0.2,0.1c2.4,2,3.1,2.7,3.7,3.5
			c0.2,0.2,0.4,0.4,0.6,0.7l0.4,0.4l0.4-0.4c0.2-0.2,0.4-0.5,0.6-0.7c0.7-0.7,1.3-1.5,3.7-3.5l0.2-0.1c3.1-2.5,7.2-5.9,7.2-10.8
			C26.2,7.4,24.9,4.9,22.9,3.5z"/>
	</symbol>
	<symbol id="relogio" viewBox="0 0 64 64">
		<g>
			<polygon points="41.6,29.2 32.9,30.5 23,17.7 21.4,18.9 30.6,30.8 29.4,31 29.7,33 32,32.7 33.6,34.8 35.3,33.5 34.3,32.3 
				41.9,31.2 	"/>
			<rect x="46.7" y="31" width="3.9" height="2"/>
			<path d="M48.4,16.6v3.2c2.6,3.4,4.1,7.7,4.1,12.3c0,11.3-9.2,20.5-20.5,20.5S11.5,43.3,11.5,32S20.7,11.5,32,11.5
				c4.6,0,8.9,1.5,12.3,4.1v-2.5c-3.5-2.3-7.8-3.7-12.3-3.7C19.6,9.5,9.5,19.6,9.5,32S19.6,54.5,32,54.5S54.5,44.4,54.5,32
				C54.5,26,52.2,20.6,48.4,16.6z"/>
			<rect x="13.4" y="31" width="3.9" height="2"/>
			<rect x="31" y="13.4" width="2" height="3.9"/>
			<rect x="31" y="46.7" width="2" height="3.9"/>
		</g>
	</symbol>

	<symbol id="checkins" viewBox="0 0 72 72">
		<g>
			<polygon points="30,48.6 19.9,38.6 22.1,36.4 30,44.4 49.9,24.4 52.1,26.6 	"/>
		</g>
		<path d="M62.4,18.9l-2.3,2c2.8,4.4,4.4,9.6,4.4,15.1c0,15.7-12.8,28.5-28.5,28.5S7.5,51.7,7.5,36S20.3,7.5,36,7.5
			c5.6,0,10.8,1.6,15.2,4.4l4.4-0.6C50.2,7.1,43.4,4.5,36,4.5C18.6,4.5,4.5,18.6,4.5,36S18.6,67.5,36,67.5S67.5,53.4,67.5,36
			C67.5,29.7,65.6,23.8,62.4,18.9z"/>
	</symbol>

	<symbol id="notificacoes" viewBox="0 0 72 72">
		<g>
			<polygon points="37.5,51 34.5,51 33,24 39,24 	"/>
		</g>
		<g>
			<circle cx="36.2" cy="57" r="3"/>
		</g>
		<polygon points="66.9,63 63.5,63 57,63 8.5,63 36,9.3 59.3,54.7 63.8,57 63.8,57 36,2.7 3.5,66 68.5,66 "/>
	</symbol>
	
	<symbol id="sair" viewBox="0 0 72 72">
		<g>
			<polygon points="39,69 10.5,69 10.5,3 39,3 39,6 13.5,6 13.5,66 39,66 	"/>
		</g>
		<polygon points="60.7,34.5 21,34.5 21,37.5 56.8,37.5 43.8,53 46.2,55 62,36 "/>
		<polygon points="62,36 46.2,17 43.8,19 56.8,34.5 21,34.5 21,37.5 60.7,37.5 "/>
	</symbol>
	
	<symbol id="senha" viewBox="0 0 72 72">
		<path d="M16.5,34.5v-9C16.5,14.7,25.2,6,36,6c10.8,0,19.5,8.7,19.5,19.5v9h3v-9C58.5,13.1,48.4,3,36,3C23.6,3,13.5,13.1,13.5,25.5v9
			H16.5z"/>
		<path d="M24.4,34.5v-7.9C24.4,20.2,29.6,15,36,15s11.6,5.2,11.6,11.6v7.9h3v-7.9C50.6,18.6,44.1,12,36,12s-14.6,6.6-14.6,14.6v7.9
			H24.4z"/>
		<g>
			<path class="st0" d="M41.6,47.6c0-3.1-2.5-5.6-5.6-5.6s-5.6,2.5-5.6,5.6c0,1.8,0.9,3.5,2.3,4.5V60h6.8v-7.9
				C40.7,51.1,41.6,49.5,41.6,47.6z"/>
			<path d="M40.5,61.1h-9v-8.5c-1.4-1.3-2.3-3.1-2.3-5c0-3.7,3-6.8,6.8-6.8s6.8,3,6.8,6.8c0,1.9-0.8,3.7-2.2,5V61.1z M33.7,58.9h4.5
				v-7.3l0.4-0.3c1.1-0.9,1.8-2.2,1.8-3.6c0-2.5-2-4.5-4.5-4.5s-4.5,2-4.5,4.5c0,1.4,0.7,2.7,1.8,3.6l0.4,0.3V58.9z"/>
		</g>
		<polygon points="60,45 60,66 12,66 12,36 57,36 60,36 63,36 63,33 9,33 9,69 63,69 63,42 "/>
	</symbol>
	
	<symbol id="sobre" viewBox="0 0 72 72">
		<g>
			<path d="M36.6,70.5c-2.5,0-4.8-0.8-6.7-2.5c-2-1.7-3-4.1-3-7.1c0-2.6,0.9-4.9,2.8-6.7c1.8-1.8,4.1-2.8,6.8-2.8
				c2.6,0,4.9,0.9,6.8,2.8c1.9,1.8,2.8,4.1,2.8,6.7c0,2.9-1,5.3-2.9,7C41.3,69.6,39.1,70.5,36.6,70.5z M36.4,54.4
				c-1.9,0-3.4,0.6-4.7,1.9c-1.3,1.3-1.9,2.8-1.9,4.6c0,2.1,0.6,3.7,1.9,4.8c1.4,1.2,2.9,1.8,4.7,1.8c1.8,0,3.3-0.6,4.6-1.8
				c1.3-1.1,1.9-2.7,1.9-4.8c0-1.8-0.6-3.3-1.9-4.6C39.9,55.1,38.3,54.4,36.4,54.4z"/>
		</g>
		<path d="M18.5,15.1c1.2-2.1,2.6-3.9,4.3-5.4c4-3.4,8.9-5.2,14.7-5.2c5.9,0,10.9,1.7,14.9,5.1c3.9,3.4,5.9,7.5,5.9,12.7
			c0,6.4-3.3,11.7-10,16.1c-3.4,2.2-5.3,3.9-6.1,5.3c-0.7,1.3-1.1,2.6-1.1,4.8h-9.3v-0.3c0-5.1,0.4-8.1,1.1-9.4
			c0.6-0.9,2.2-2.7,6.8-6.1c2.2-1.6,3.7-3.1,4.6-4.6c0.9-1.5,1.4-3.4,1.4-5.6c0-2.8-0.9-5-2.7-6.7c-1.8-1.6-3.9-2.4-6.4-2.4
			c-3.9,0-8.8,1.8-10.5,10H15.7c0,0,0,0,0,0h-3c-0.1,0.4-0.2,0.9-0.2,1.3l-0.2,1.7h16.3l0.2-1.3c1.2-7.8,5-8.7,7.8-8.7
			c1.8,0,3.2,0.5,4.4,1.6c1.2,1.1,1.8,2.5,1.8,4.4c0,1.6-0.3,3-1,4c-0.7,1.1-2,2.4-3.9,3.8c-4.1,3-6.6,5.3-7.6,7
			c-1.1,1.9-1.6,5-1.6,10.9v3.3H44v-1.5c0-2.9,0.3-4,0.8-4.8c0.3-0.5,1.4-1.8,5.1-4.3c7.5-4.9,11.3-11.2,11.3-18.6
			c0-6-2.3-11-6.9-14.9c-4.5-3.8-10.2-5.8-16.8-5.8c-6.5,0-12.1,2-16.7,5.9c-2.9,2.5-5.1,5.9-6.6,9.9"/>
	</symbol>
	
</svg>
