<?xml version="1.0" encoding="utf-8"?>
<!-- Generator: Adobe Illustrator 22.0.1, SVG Export Plug-In . SVG Version: 6.00 Build 0)  -->
<svg version="1.1" id="minhasaude" xmlns="http://www.w3.org/2000/svg" xmlns:xlink="http://www.w3.org/1999/xlink" x="0px" y="0px"
	 viewBox="0 0 28 28" style="enable-background:new 0 0 28 28;" xml:space="preserve">
<path class="st0" d="M22.9,3.5v1.4c1.4,1.3,2.2,3.2,2.2,5.4c0,4.3-3.8,7.4-6.8,9.9l-0.2,0.1c-2.5,2-3.2,2.8-3.9,3.6
	C14.1,24,14.1,24,14,24.1c-0.1-0.1-0.1-0.2-0.2-0.2c-0.7-0.8-1.4-1.6-3.9-3.6l-0.2-0.1c-2.3-1.9-5-4.1-6.2-6.9h5.6l1.5,4.5l2.2-6.6
	l2.2,6.5l2.3-5.8l0.7,1.4h2.6l1.1-1.1h-3l-1.5-3l-2.1,5.3l-2.3-6.8l-2.2,6.6L10,12.2H3.2c-0.2-0.6-0.3-1.3-0.3-1.9
	c0-3.2,1.8-5.9,4.4-6.7c0.5-0.1,0.9-0.2,1.4-0.2c1.8,0,3.5,1.1,4.8,3L14,7.1l0.5-0.7C16,4,18.3,2.9,20.6,3.6c0,0,0,0,0,0V2.4
	c-2.5-0.6-4.9,0.4-6.6,2.7c-1.8-2.4-4.4-3.4-7-2.6C4,3.4,1.8,6.6,1.8,10.3c0,4.8,4.2,8.3,7.2,10.8l0.2,0.1c2.4,2,3.1,2.7,3.7,3.5
	c0.2,0.2,0.4,0.4,0.6,0.7l0.4,0.4l0.4-0.4c0.2-0.2,0.4-0.5,0.6-0.7c0.7-0.7,1.3-1.5,3.7-3.5l0.2-0.1c3.1-2.5,7.2-5.9,7.2-10.8
	C26.2,7.4,24.9,4.9,22.9,3.5z"/>
</svg>
