<?xml version="1.0" encoding="utf-8"?>
<!-- Generator: Adobe Illustrator 22.0.1, SVG Export Plug-In . SVG Version: 6.00 Build 0)  -->
<svg version="1.1" id="Camada_1" xmlns="http://www.w3.org/2000/svg" xmlns:xlink="http://www.w3.org/1999/xlink" x="0px" y="0px"
	 viewBox="0 0 72 72" style="enable-background:new 0 0 72 72;" xml:space="preserve">
<style type="text/css">
	.st0{fill:#FFFFFF;}
</style>
<path d="M16.5,34.5v-9C16.5,14.7,25.2,6,36,6c10.8,0,19.5,8.7,19.5,19.5v9h3v-9C58.5,13.1,48.4,3,36,3C23.6,3,13.5,13.1,13.5,25.5v9
	H16.5z"/>
<path d="M24.4,34.5v-7.9C24.4,20.2,29.6,15,36,15s11.6,5.2,11.6,11.6v7.9h3v-7.9C50.6,18.6,44.1,12,36,12s-14.6,6.6-14.6,14.6v7.9
	H24.4z"/>
<g>
	<path class="st0" d="M41.6,47.6c0-3.1-2.5-5.6-5.6-5.6s-5.6,2.5-5.6,5.6c0,1.8,0.9,3.5,2.3,4.5V60h6.8v-7.9
		C40.7,51.1,41.6,49.5,41.6,47.6z"/>
	<path d="M40.5,61.1h-9v-8.5c-1.4-1.3-2.3-3.1-2.3-5c0-3.7,3-6.8,6.8-6.8s6.8,3,6.8,6.8c0,1.9-0.8,3.7-2.2,5V61.1z M33.7,58.9h4.5
		v-7.3l0.4-0.3c1.1-0.9,1.8-2.2,1.8-3.6c0-2.5-2-4.5-4.5-4.5s-4.5,2-4.5,4.5c0,1.4,0.7,2.7,1.8,3.6l0.4,0.3V58.9z"/>
</g>
<polygon points="60,45 60,66 12,66 12,36 57,36 60,36 63,36 63,33 9,33 9,69 63,69 63,42 "/>
</svg>
