<?xml version="1.0" encoding="utf-8"?>
<!-- Generator: Adobe Illustrator 22.0.1, SVG Export Plug-In . SVG Version: 6.00 Build 0)  -->
<svg version="1.1" id="relogio" xmlns="http://www.w3.org/2000/svg" xmlns:xlink="http://www.w3.org/1999/xlink" x="0px" y="0px"
	 viewBox="0 0 64 64" style="enable-background:new 0 0 64 64;" xml:space="preserve">
<g>
	<polygon points="41.6,29.2 32.9,30.5 23,17.7 21.4,18.9 30.6,30.8 29.4,31 29.7,33 32,32.7 33.6,34.8 35.3,33.5 34.3,32.3 
		41.9,31.2 	"/>
	<rect x="46.7" y="31" width="3.9" height="2"/>
	<path d="M48.4,16.6v3.2c2.6,3.4,4.1,7.7,4.1,12.3c0,11.3-9.2,20.5-20.5,20.5S11.5,43.3,11.5,32S20.7,11.5,32,11.5
		c4.6,0,8.9,1.5,12.3,4.1v-2.5c-3.5-2.3-7.8-3.7-12.3-3.7C19.6,9.5,9.5,19.6,9.5,32S19.6,54.5,32,54.5S54.5,44.4,54.5,32
		C54.5,26,52.2,20.6,48.4,16.6z"/>
	<rect x="13.4" y="31" width="3.9" height="2"/>
	<rect x="31" y="13.4" width="2" height="3.9"/>
	<rect x="31" y="46.7" width="2" height="3.9"/>
</g>
</svg>
