<?xml version="1.0" encoding="utf-8"?>
<!-- Generator: Adobe Illustrator 22.0.1, SVG Export Plug-In . SVG Version: 6.00 Build 0)  -->
<svg version="1.1" id="ambulancia" xmlns="http://www.w3.org/2000/svg" xmlns:xlink="http://www.w3.org/1999/xlink" x="0px" y="0px"
	 viewBox="0 0 64 64" style="enable-background:new 0 0 64 64;" xml:space="preserve">
<path d="M16.1,50.9H7.4v-2h8.6V50.9z M35.1,23.3H23.3l-9.8,12.3h21.6V23.3z M24.3,25.3H33v8.2H17.7L24.3,25.3z M46.3,24.3h-4.1v10.2
	h4.1V24.3z M49.4,31.5v-4.1H39.2v4.1H49.4z M56.6,18.1v2v28.7v2h-5.2c-0.5,2.9-3,5.1-6.1,5.1s-5.6-2.2-6.1-5.1H26.8
	c-0.5,2.9-3,5.1-6.1,5.1c-3.4,0-6.1-2.8-6.1-6.1c0-3.4,2.8-6.1,6.1-6.1c3,0,5.6,2.2,6.1,5.1h12.5c0.5-2.9,3-5.1,6.1-5.1
	s5.6,2.2,6.1,5.1h3.2V20.2H21.5l-12,15.4v15.3h-2V36.6v-1.7v0l0.1-0.1l0.2-0.3h0l12.7-16.4h0.1h1.2h4.1v-2H30v2H56.6z M24.8,49.9
	c0-2.3-1.8-4.1-4.1-4.1s-4.1,1.8-4.1,4.1s1.8,4.1,4.1,4.1S24.8,52.2,24.8,49.9z M49.4,49.9c0-2.3-1.8-4.1-4.1-4.1s-4.1,1.8-4.1,4.1
	s1.8,4.1,4.1,4.1S49.4,52.2,49.4,49.9z M38.9,10.6l-1.5-1.4l-4.1,4.1l1.5,1.4L38.9,10.6z M22.5,13.4l-4.1-4.1l-1.5,1.4l4.1,4.1
	L22.5,13.4z M28.9,8l-2,0l0,5.8l2,0L28.9,8z"/>
</svg>
