<?xml version="1.0" encoding="utf-8"?>
<!-- Generator: Adobe Illustrator 22.0.1, SVG Export Plug-In . SVG Version: 6.00 Build 0)  -->
<svg version="1.1" id="Camada_1" xmlns="http://www.w3.org/2000/svg" xmlns:xlink="http://www.w3.org/1999/xlink" x="0px" y="0px"
	 viewBox="0 0 72 72" style="enable-background:new 0 0 72 72;" xml:space="preserve">
<image style="overflow:visible;" width="450" height="470" xlink:href="2B1809AA.jpg"  transform="matrix(0.2766 0 0 0.2766 -13.4681 81)">
</image>
<g>
	<polygon points="30,48.6 19.9,38.6 22.1,36.4 30,44.4 49.9,24.4 52.1,26.6 	"/>
</g>
<path d="M62.4,18.9l-2.3,2c2.8,4.4,4.4,9.6,4.4,15.1c0,15.7-12.8,28.5-28.5,28.5S7.5,51.7,7.5,36S20.3,7.5,36,7.5
	c5.6,0,10.8,1.6,15.2,4.4l4.4-0.6C50.2,7.1,43.4,4.5,36,4.5C18.6,4.5,4.5,18.6,4.5,36S18.6,67.5,36,67.5S67.5,53.4,67.5,36
	C67.5,29.7,65.6,23.8,62.4,18.9z"/>
</svg>
