<?xml version="1.0" encoding="utf-8"?>
<!-- Generator: Adobe Illustrator 22.0.1, SVG Export Plug-In . SVG Version: 6.00 Build 0)  -->
<svg version="1.1" id="hemograma" xmlns="http://www.w3.org/2000/svg" xmlns:xlink="http://www.w3.org/1999/xlink" x="0px" y="0px"
	 viewBox="0 0 64 64" style="enable-background:new 0 0 64 64;" xml:space="preserve">
<g>
	<path d="M30.5,33.7c-2.8,0-5.1-2.3-5.1-5.1c0-2.4,3.5-8.8,4.2-10.1l0.9-1.6l0.9,1.6c0.7,1.3,4.2,7.7,4.2,10.1
		C35.6,31.4,33.3,33.7,30.5,33.7z M30.5,21.2c-1.4,2.7-3.1,6.2-3.1,7.4c0,1.7,1.4,3.1,3.1,3.1c1.7,0,3.1-1.4,3.1-3.1
		C33.6,27.4,32,23.9,30.5,21.2z M18.7,26.3l-0.9-1.6l-0.9,1.6c-0.1,0.1-0.2,0.3-0.3,0.5c0,1.1,0.2,2.3,0.5,3.4
		c0.2-0.4,0.5-0.9,0.7-1.3c1.1,2,2.5,4.7,3.7,7.4c0.9,0.7,1.9,1.2,2.9,1.6C22.4,32.9,19.2,27.2,18.7,26.3z M24,42.7
		c0.1,0.5,0.2,0.9,0.2,1.2c0,3.5-2.8,6.4-6.4,6.4s-6.4-2.8-6.4-6.4c0-1.6,1.4-5,3-8.4c-0.5-0.7-0.9-1.5-1.2-2.3
		c-1.9,3.9-3.8,8.4-3.8,10.7c0,4.6,3.8,8.4,8.4,8.4s8.4-3.8,8.4-8.4c0-0.2,0-0.5-0.1-0.8C25.4,43.1,24.7,42.9,24,42.7z M54.6,48.4
		L41.4,35.1c1.7-2.5,2.5-5.4,2.5-8.5c0-4.1-1.6-8-4.5-10.9c-2.9-2.9-6.8-4.5-10.9-4.5c-4.1,0-8,1.6-10.9,4.5c-6,6-6,15.7,0,21.7
		c3,3,6.9,4.5,10.9,4.5c3,0,5.9-0.8,8.5-2.5l13.3,13.3L54.6,48.4z M19.1,36.1c-5.2-5.2-5.2-13.6,0-18.8c2.5-2.5,5.9-3.9,9.4-3.9
		s6.9,1.4,9.4,3.9s3.9,5.9,3.9,9.4c0,3.6-1.4,6.9-3.9,9.4C32.8,41.3,24.3,41.3,19.1,36.1z M39.4,37.5c0.2-0.2,0.5-0.5,0.7-0.8
		l11.6,11.6l-1.4,1.4L38.6,38.2C38.9,38,39.2,37.8,39.4,37.5z"/>
</g>
</svg>
