<?xml version="1.0" encoding="utf-8"?>
<!-- Generator: Adobe Illustrator 22.0.1, SVG Export Plug-In . SVG Version: 6.00 Build 0)  -->
<svg version="1.1" id="comida" xmlns="http://www.w3.org/2000/svg" xmlns:xlink="http://www.w3.org/1999/xlink" x="0px" y="0px"
	 viewBox="0 0 64 64" style="enable-background:new 0 0 64 64;" xml:space="preserve">
<path d="M26.9,19.2h-2v-3.2c0-0.8,0.3-1.6,0.9-2.2l0.8-0.8c0.2-0.2,0.3-0.5,0.3-0.7V9h2v3.2c0,0.8-0.3,1.6-0.9,2.2l-0.8,0.8
	c-0.2,0.2-0.3,0.5-0.3,0.7V19.2z M51.5,18.8c0-0.3,0.1-0.5,0.3-0.7l0.8-0.8c0.6-0.6,0.9-1.4,0.9-2.2v-3.2h-2v3.2
	c0,0.3-0.1,0.5-0.3,0.7l-0.8,0.8c-0.6,0.6-0.9,1.4-0.9,2.2v3.2h2V18.8z M43.3,15.9c0-0.3,0.1-0.5,0.3-0.7l0.8-0.8
	c0.6-0.6,0.9-1.4,0.9-2.2V9h-2v3.2c0,0.3-0.1,0.5-0.3,0.7l-0.8,0.8c-0.6,0.6-0.9,1.4-0.9,2.2v3.2h2V15.9z M19.3,18
	c0-0.3,0.1-0.5,0.3-0.7l0.8-0.8c0.6-0.6,0.9-1.4,0.9-2.2V11h-2v3.2c0,0.3-0.1,0.5-0.3,0.7l-0.8,0.8c-0.6,0.6-0.9,1.4-0.9,2.2v3.2h2
	V18z M53.5,41.7C50.5,49.5,42,55,32,55c-11.7,0-21.3-7.6-22.5-17.4h0v-2h3.3c0.6-2.8,2.6-5.2,5.2-6.3l-8.5-8.5l1.4-1.4l9.3,9.3
	c0.5-0.1,1-0.1,1.6-0.1c1.1,0,2.3,0.2,3.3,0.6c1.1-5.1,5.6-8.8,11-8.8c5.7,0,10.4,4.1,11.2,9.7c2,1.3,3.4,3.4,4,5.7h3.3l-2.1,2h0h0
	h-1h-2h-5.1H14.6h-2h-1C12.8,46.3,21.5,53,32,53c8.8,0,16.3-4.7,19.3-11.3H53.5z M22.1,30.5l5.1,5.1h21.9c-0.5-1.7-1.7-3.3-3.3-4.2
	l-0.5-0.3l-0.1-0.5c-0.4-4.8-4.4-8.3-9.2-8.3c-4.8,0-8.8,3.6-9.2,8.4l-0.1,1.6l-1.4-0.8C24.4,30.9,23.3,30.5,22.1,30.5z M14.9,35.6
	h9.4l-4.8-4.8C17.3,31.6,15.6,33.3,14.9,35.6z"/>
</svg>
