<?xml version="1.0" encoding="utf-8"?>
<!-- Generator: Adobe Illustrator 22.0.1, SVG Export Plug-In . SVG Version: 6.00 Build 0)  -->
<svg version="1.1" id="medico" xmlns="http://www.w3.org/2000/svg" xmlns:xlink="http://www.w3.org/1999/xlink" x="0px" y="0px"
	 viewBox="0 0 64 64" style="enable-background:new 0 0 64 64;" xml:space="preserve">
<g>
	<g>
		<path d="M32,30c-5.6,0-10.2-4.6-10.2-10.2S26.4,9.5,32,9.5s10.2,4.6,10.2,10.2S37.6,30,32,30z M32,11.5c-4.5,0-8.2,3.7-8.2,8.2
			s3.7,8.2,8.2,8.2s8.2-3.7,8.2-8.2S36.5,11.5,32,11.5z"/>
	</g>
	<path d="M34,41.2c3.3,0,6.1-2.2,6.9-5.3c6.6,2.9,11,9.1,11.5,16.5H18.3l-2,2h38.3l0-1c-0.1-9-5.4-16.4-13.3-19.7V32h1v-2h-1h-1h-1
		v3.1c-2.3-0.7-4.7-1.1-7.3-1.1c-2.5,0-4.8,0.4-7,1V30h-1h-1h-1v2h1v1.7C14.9,37,9.6,44.4,9.5,53.5l0,1h2.1l0-2h0
		C12,44.9,16.5,38.8,23,35.9c0.8,3.1,3.6,5.3,6.9,5.3h1v3.9c0,0.2,0,0.3,0,0.5c0.1,1.4,0.9,2.6,2,3.3c0.8,0.5,1.7,0.8,2.7,0.8
		c0.5,0,1-0.1,1.5-0.2l3.3-1c0.7,1.2,2,2,3.5,2c2.3,0,4.1-1.8,4.1-4.1s-1.8-4.1-4.1-4.1s-4.1,1.8-4.1,4.1c0,0.1,0,0.1,0,0.2l-3.3,1
		c-0.8,0.2-1.7,0.1-2.4-0.3c-0.7-0.4-1.1-1.1-1.1-1.8c0-0.1,0-0.2,0-0.3v-3.9H34z M44,44.4c1.1,0,2,0.9,2,2c0,1.1-0.9,2-2,2
		c-1.1,0-2-0.9-2-2C42,45.3,42.9,44.4,44,44.4z M24.9,35.1c2.1-0.7,4.4-1.1,6.9-1.1c2.6,0,5,0.4,7.2,1.2c-0.5,2.3-2.6,4-5,4H30
		C27.5,39.2,25.4,37.4,24.9,35.1z"/>
</g>
</svg>
