<?xml version="1.0" encoding="utf-8"?>
<svg version="1.1" xmlns="http://www.w3.org/2000/svg" xmlns:xlink="http://www.w3.org/1999/xlink" x="0px" y="0px" viewBox="0 0 1000 1000" enable-background="new 0 0 1000 1000" xml:space="preserve">
<g><path d="M277.2,232.8c0,123.1,99.8,222.8,222.8,222.8c123.1,0,222.8-99.8,222.8-222.8S623.1,10,500,10C377,10,277.2,109.8,277.2,232.8z"/><path d="M500,504.4C272.8,504.4,88.6,721.8,88.6,990h822.9C911.4,721.8,727.2,504.4,500,504.4z M785.6,778.1c-1.6,1-3.4,1.4-5.2,1.4c-3.5,0-6.9-1.8-8.8-5c-39.3-65.9-92.2-120.5-153-157.9c-4.8-3-6.3-9.3-3.4-14.1c3-4.8,9.3-6.3,14.1-3.4c63.6,39.1,118.9,96.1,159.9,164.8C792.1,768.9,790.5,775.2,785.6,778.1z"/><path d="M781.8,857.9C771,778.1,743.9,725.5,676,678.5"/></g>
</svg>