<?xml version="1.0" encoding="utf-8"?>
<!-- Generator: Adobe Illustrator 22.0.1, SVG Export Plug-In . SVG Version: 6.00 Build 0)  -->
<svg version="1.1" id="anotacoes" xmlns="http://www.w3.org/2000/svg" xmlns:xlink="http://www.w3.org/1999/xlink" x="0px" y="0px"
	 viewBox="0 0 64 64" style="enable-background:new 0 0 64 64;" xml:space="preserve">
<path d="M49.4,46.3H20.7V17.7h4.1v4.1h20.5v-4.1h4.1l2-2h-6.1v-4.1h-2v-2H26.9v2h-2v4.1h-6.1v2v28.7v2v4.1v2h2h28.7h2v-2v-4.1v-2
	V21.8h-2V46.3z M26.9,13.6h2v-2h12.3v2h2v6.1H26.9V13.6z M49.4,52.5H20.7v-4.1h28.7V52.5z M39.2,15.6H31v-2h8.2V15.6z M14.6,50.4h-2
	V25.9l1-2l1,2V50.4z M45.3,27.9H24.8v-2h20.5V27.9z M45.3,34H24.8v-2h20.5V34z M45.3,40.2H24.8v-2h20.5V40.2z"/>
</svg>
