<?xml version="1.0" encoding="utf-8"?>
<!-- Generator: Adobe Illustrator 22.0.1, SVG Export Plug-In . SVG Version: 6.00 Build 0)  -->
<svg version="1.1" id="lavagemmaos" xmlns="http://www.w3.org/2000/svg" xmlns:xlink="http://www.w3.org/1999/xlink" x="0px" y="0px"
	 viewBox="0 0 64 64" style="enable-background:new 0 0 64 64;" xml:space="preserve">
<path d="M33.3,48.1H20.6c-0.4,0-0.8-0.1-1.2-0.4l-4.9-3.3c-0.5-0.3-1-0.5-1.5-0.5h-3v-2h3c0.9,0,1.9,0.3,2.7,0.8l4.9,3.3l12.8,0
	c0.6,0,1.1-0.2,1.5-0.5l8.3-6.6c0,0,0-0.1,0.1-0.1c0,0,0-0.1,0-0.1l-0.5-0.5c0,0-0.1,0-0.1,0l-8,4.8c-1.2,0.7-2.5,0.9-3.9,0.7
	L23,42.2c-1-0.2-1.7-1.1-1.7-2.1c0-1.2,1-2.1,2.1-2.1h8c0.1,0,0.1,0,0.1-0.1c0,0,0-0.1-0.1-0.1l-8.1-1.9c-0.8-0.2-1.6-0.2-2.4-0.2
	H10v-2h11c0.9,0,1.9,0.1,2.8,0.3l8.1,1.9c1,0.2,1.7,1.1,1.7,2.1c0,1.2-1,2.2-2.1,2.2h-8c-0.1,0-0.1,0-0.1,0.1c0,0,0,0.1,0.1,0.1
	l7.7,1.5c0.8,0.2,1.7,0,2.4-0.4l8-4.8c0.8-0.5,1.9-0.4,2.6,0.3l0.5,0.5c0.4,0.4,0.7,1,0.6,1.7c0,0.6-0.3,1.2-0.8,1.6l-8.3,6.6
	C35.4,47.8,34.4,48.1,33.3,48.1z M37.6,30.5c0-1.2-1-5.1-3.1-5.1c-2.1,0-3.1,3.9-3.1,5.1c0,1.7,1.4,3.1,3.1,3.1
	C36.3,33.5,37.6,32.2,37.6,30.5z M35.6,30.5c0,0.6-0.5,1-1,1c-0.6,0-1-0.5-1-1c0-0.8,0.6-2.5,1-3C35,28,35.6,29.6,35.6,30.5z M52,53
	h-1h-1V20.2c0-4-3.2-7.2-7.2-7.2s-7.2,3.2-7.2,7.2v1h-2v-1c0-5.1,4.1-9.2,9.2-9.2s9.2,4.1,9.2,9.2v28.7h2V20.2C54,14,49,9,42.8,9
	S31.5,14,31.5,20.2v3.1h6.1v-3.1c0-2.8,2.3-5.1,5.1-5.1c2.8,0,5.1,2.3,5.1,5.1V55H54L52,53L52,53z"/>
</svg>
