<?xml version="1.0" encoding="utf-8"?>
<!-- Generator: Adobe Illustrator 22.0.1, SVG Export Plug-In . SVG Version: 6.00 Build 0)  -->
<svg version="1.1" id="exame" xmlns="http://www.w3.org/2000/svg" xmlns:xlink="http://www.w3.org/1999/xlink" x="0px" y="0px"
	 viewBox="0 0 64 64" style="enable-background:new 0 0 64 64;" xml:space="preserve">
<path d="M50.4,20.7c0,0.6-0.5,1-1,1c-0.6,0-1-0.5-1-1s0.5-1,1-1C50,19.7,50.4,20.2,50.4,20.7z M49.4,23.8c-0.6,0-1,0.5-1,1
	c0,0.6,0.5,1,1,1c0.6,0,1-0.5,1-1C50.4,24.3,50,23.8,49.4,23.8z M52.5,19.7h2v22.5v2h-2h-2v4.1v2h-2H15.6h-2v-2v-4.1h-2h-2v-2V15.6
	v-2h45.1l-2,2h-6.1v26.6h6.1V19.7z M11.5,23.8H17l2.7-5.4l2.7,5.4h3.9l1.5,1.5l4.4-6.6l2.6,5.1h3.9l1.6,1.6l1.6-1.6h2.5v-8.2H11.5
	V23.8z M11.5,35.1H17l2.7-5.4l2.7,5.4h3.9l1.5,1.5l4.4-6.6l2.6,5.1h3.9l1.6,1.6l1.6-1.6h2.5v-9.2h-1.6l-2.5,2.5l-2.5-2.5h-4.3
	l-1.5-3.1l-3.8,5.7l-2.6-2.6h-4.3L19.7,23l-1.4,2.8h-6.8V35.1z M44.3,42.2v-5.1h-1.6l-2.5,2.5l-2.5-2.5h-4.3L31.9,34l-3.8,5.7
	l-2.6-2.6h-4.3l-1.4-2.8l-1.4,2.8h-6.8v5.1H44.3z M48.4,44.3h-2h-2H15.6v4.1h32.8V44.3z"/>
</svg>
