<?xml version="1.0" encoding="utf-8"?>
<!-- Generator: Adobe Illustrator 22.0.1, SVG Export Plug-In . SVG Version: 6.00 Build 0)  -->
<svg version="1.1" id="globo" xmlns="http://www.w3.org/2000/svg" xmlns:xlink="http://www.w3.org/1999/xlink" x="0px" y="0px"
	 viewBox="0 0 64 64" style="enable-background:new 0 0 64 64;" xml:space="preserve">
<path d="M47.4,14.2l0.3,3.1c1.3,1.4,2.5,3.1,3.4,4.8c-2.6,0.8-5.4,1.4-8.3,1.8c-0.4-4.1-1.2-8.1-2.3-11.7l-0.8-2.6
	c-2.4-0.8-5-1.3-7.7-1.3C19,8.4,8.4,19,8.4,32S19,55.6,32,55.6S55.6,45,55.6,32C55.6,24.9,52.4,18.5,47.4,14.2z M41.2,32
	c0,1.9-0.1,3.8-0.2,5.7c-2.9-0.4-5.9-0.6-9-0.6s-6.1,0.2-9,0.6c-0.1-1.9-0.2-3.7-0.2-5.7s0.1-3.8,0.2-5.7c2.9,0.4,5.9,0.6,9,0.6
	s6.1-0.2,9-0.6C41.1,28.2,41.2,30.1,41.2,32z M32,10.5c2.1,0,4.2,0.3,6.1,0.9c1.3,3.9,2.2,8.3,2.7,12.9C38,24.6,35,24.8,32,24.8
	s-6-0.2-8.8-0.5c0.5-4.6,1.4-9,2.7-12.9C27.8,10.8,29.9,10.5,32,10.5z M23.5,12.2c-1.1,3.6-1.9,7.6-2.4,11.8
	c-2.9-0.4-5.7-1.1-8.3-1.8C15.1,17.8,18.9,14.2,23.5,12.2z M10.5,32c0-2.8,0.5-5.5,1.5-8c2.8,0.9,5.8,1.5,8.9,2
	c-0.2,1.9-0.2,3.9-0.2,6s0.1,4,0.2,6c-3.1,0.5-6.1,1.2-8.9,2C11,37.5,10.5,34.8,10.5,32z M12.9,41.8c2.6-0.8,5.4-1.4,8.3-1.8
	c0.5,4.2,1.3,8.1,2.4,11.8C18.9,49.8,15.2,46.2,12.9,41.8z M32,53.5c-2.1,0-4.2-0.3-6.1-0.9c-1.3-3.9-2.2-8.3-2.7-12.9
	c2.8-0.3,5.8-0.5,8.8-0.5s6,0.2,8.8,0.5c-0.5,4.6-1.4,9-2.7,12.9C36.2,53.2,34.1,53.5,32,53.5z M40.5,51.8c1.1-3.6,1.9-7.6,2.4-11.8
	c2.9,0.4,5.7,1.1,8.3,1.8C48.9,46.2,45.1,49.8,40.5,51.8z M43,38c0.2-1.9,0.2-3.9,0.2-6s-0.1-4-0.2-6c3.1-0.5,6.1-1.2,8.9-2
	c1,2.5,1.5,5.2,1.5,8S53,37.5,52,40C49.2,39.1,46.2,38.4,43,38z"/>
</svg>
