<?xml version="1.0" encoding="utf-8"?>
<!-- Generator: Adobe Illustrator 22.0.1, SVG Export Plug-In . SVG Version: 6.00 Build 0)  -->
<svg version="1.1" id="correio" xmlns="http://www.w3.org/2000/svg" xmlns:xlink="http://www.w3.org/1999/xlink" x="0px" y="0px"
	 viewBox="0 0 64 64" style="enable-background:new 0 0 64 64;" xml:space="preserve">
<g>
	<path d="M53.5,20.7v0.6L32,36.9L10.5,21.3v-4.7h41h2l0,0l2-2H8.4v34.9h47.1V20.7H53.5z M10.5,23.8l14,10.2l-14,11.7V23.8z
		 M11.7,47.4l14.5-12.2l5.8,4.2l5.8-4.2l14.5,12.2H11.7z M53.5,45.7L39.5,34l14-10.2V45.7z"/>
	<path d="M53.5,20.7v0.6L32,36.9L10.5,21.3v-4.7h41h2l0,0l2-2H8.4v34.9h47.1V20.7H53.5z M10.5,23.8l14,10.2l-14,11.7V23.8z
		 M11.7,47.4l14.5-12.2l5.8,4.2l5.8-4.2l14.5,12.2H11.7z M53.5,45.7L39.5,34l14-10.2V45.7z"/>
</g>
</svg>
