<?xml version="1.0" encoding="utf-8"?>
<!-- Generator: Adobe Illustrator 22.0.1, SVG Export Plug-In . SVG Version: 6.00 Build 0)  -->
<svg version="1.1" id="Camada_1" xmlns="http://www.w3.org/2000/svg" xmlns:xlink="http://www.w3.org/1999/xlink" x="0px" y="0px"
	 viewBox="0 0 72 72" style="enable-background:new 0 0 72 72;" xml:space="preserve">
<g>
	<path d="M39.2,34c-2.7-2.7-7.1-2.7-9.8,0s-2.7,7.1,0,9.8c1.3,1.3,3.1,2,4.9,2s3.5-0.7,4.9-2C41.9,41.1,41.9,36.7,39.2,34z
		 M31.6,36.1c0.8-0.8,1.8-1.1,2.8-1.1c0.5,0,1,0.1,1.5,0.3l-5.1,5.1C30.1,39,30.4,37.3,31.6,36.1z M37.1,41.6
		c-1.1,1.1-2.8,1.4-4.2,0.8l5.1-5.1C38.5,38.8,38.2,40.5,37.1,41.6z M38.6,54.4c-2.1-3.2-6.4-4.1-9.6-2l0,0c-3.2,2.1-4.1,6.4-2,9.6
		c1.3,2,3.5,3.1,5.8,3.1c1.3,0,2.6-0.4,3.8-1.1C39.8,61.9,40.7,57.6,38.6,54.4z M36.1,56.1c0.9,1.4,0.8,3.1,0,4.3l-3.9-6
		C33.6,54.1,35.2,54.7,36.1,56.1z M29.6,60.3c-0.9-1.4-0.8-3.1,0-4.3l3.9,6C32,62.3,30.4,61.7,29.6,60.3z M23,43.4
		c-1.6-1-3.4-1.3-5.2-0.9c-1.8,0.4-3.3,1.5-4.3,3c-2,3.2-1.1,7.5,2.1,9.5c1.1,0.7,2.4,1.1,3.7,1.1c2.3,0,4.5-1.1,5.8-3.2
		C27.2,49.7,26.2,45.4,23,43.4z M18.5,45.4c0.3-0.1,0.6-0.1,0.9-0.1c0.7,0,1.4,0.2,2.1,0.6c1.4,0.9,2,2.5,1.8,4L17.1,46
		C17.5,45.7,18,45.5,18.5,45.4z M17.2,52.5c-1.4-0.9-2-2.5-1.8-4l6.1,3.9C20.3,53.3,18.6,53.4,17.2,52.5z M65.2,57.3V28.8
		c0-4.4-3.1-7.5-7.5-7.5h-6v-3h4.5v-15h-27v9h-15v12h4.5v1.5h-4.5c-4.4,0-7.5,3.1-7.5,7.5v36h42v-3h16.5l-3-3h-3H48.7v-9h13.5v3
		C62.2,57.3,65.2,57.3,65.2,57.3z M32.2,6.3h21v9h-12v-3h-9V6.3z M17.2,15.3h21v6h-21V15.3z M45.7,66.3h-36v-33
		c0-2.7,1.8-4.5,4.5-4.5h7.5v-4.4h12v4.4h7.5c2.7,0,4.5,1.8,4.5,4.5V66.3z M41.2,25.8h-4.5v-1.5h4.5v-6h7.5v6h9
		c2.7,0,4.5,1.8,4.5,4.5v4.5H48.7C48.7,28.9,45.6,25.8,41.2,25.8z M48.7,51.3v-15h13.5v15H48.7z"/>
</g>
</svg>
