<svg id="Camada_1" data-name="Camada 1" xmlns="http://www.w3.org/2000/svg" viewBox="0 0 234 234"><defs><style>.cls-1{fill:#eaaa00;}.cls-2{font-size:30px;font-family:Hind-Medium, Hind;}.cls-2,.cls-3{fill:#fff;}</style></defs><title>Prancheta 3</title><rect class="cls-1" y="-0.08" width="234.17" height="234.17" rx="19.51" ry="19.51"/><text class="cls-2" transform="translate(66.92 203.47)">Hábitos</text><circle class="cls-3" cx="157.05" cy="116.27" r="3.33"/><circle class="cls-3" cx="112.93" cy="116.65" r="6.66"/><path class="cls-3" d="M112.93,119.51H76.31a2.86,2.86,0,0,1-2.25-4.61L95.79,87,86,66.11l5.17-2.44,9.44,20,39-4.53.66,5.67-37.12,4.31,12.38,26.27a2.86,2.86,0,0,1-2.58,4.08ZM82.15,113.8h26.28l-9.92-21Z"/><rect class="cls-3" x="104.47" y="96.48" width="43.91" height="5.71" transform="translate(-29.64 138.01) rotate(-52.07)"/><rect class="cls-3" x="142.78" y="62.47" width="5.71" height="56.23" transform="translate(-24.24 66.95) rotate(-23.96)"/><path class="cls-3" d="M81,64.53h0C80,66.45,82.32,69,85.65,69l15.76-2.85a1.07,1.07,0,0,0,0-2.1l-15.79-1.7A3.85,3.85,0,0,0,81,64.53Z"/><circle class="cls-3" cx="77.12" cy="116.27" r="5.71"/><path class="cls-3" d="M77.12,142a25.7,25.7,0,1,1,25.69-25.7A25.72,25.72,0,0,1,77.12,142Zm0-45.68a20,20,0,1,0,20,20A20,20,0,0,0,77.12,96.29Z"/><polygon class="cls-3" points="154.19 76.31 148.49 76.31 148.49 67.74 128.5 67.74 128.5 62.03 154.19 62.03 154.19 76.31"/><path class="cls-3" d="M174.18,97.18V106a20,20,0,1,1-11.42-8.9V91.24a25.8,25.8,0,1,0,11.42,5.94Z"/></svg>