<svg id="Camada_1" data-name="Camada 1" xmlns="http://www.w3.org/2000/svg" viewBox="0 0 234 234"><defs><style>.cls-1{fill:#b288b9;}.cls-2{font-size:30px;font-family:Hind-Medium, Hind;}.cls-2,.cls-3{fill:#fff;}</style></defs><title>Prancheta 5</title><rect class="cls-1" x="-0.08" y="-0.08" width="234.17" height="234.17" rx="19.51" ry="19.51"/><text class="cls-2" transform="translate(28.7 188.38)">Necessidades<tspan x="29.55" y="29">Especiais</tspan></text><path class="cls-3" d="M117,59.45a15.35,15.35,0,1,1,15.34-15.34A15.36,15.36,0,0,1,117,59.45Zm0-25a9.64,9.64,0,1,0,9.63,9.64A9.64,9.64,0,0,0,117,34.47Z"/><circle class="cls-3" cx="83.81" cy="133.31" r="10.35"/><circle class="cls-3" cx="150.19" cy="133.31" r="10.35"/><path class="cls-3" d="M117,25.91c14.69,0,27.59,4.74,37.39,12.91l9,.53C152.16,27.36,135.94,20.2,117,20.2c-21.9,0-40.17,9.57-51.26,25.12A12.25,12.25,0,0,1,70.92,48C81.05,34.32,97.43,25.91,117,25.91Z"/><circle class="cls-3" cx="62.76" cy="57.31" r="8.56"/><circle class="cls-3" cx="171.24" cy="57.31" r="8.56"/><path class="cls-3" d="M74.68,122.52c-9.3-10-14.77-23.74-14.77-39.52a63.49,63.49,0,0,1,1.44-13.41,12.34,12.34,0,0,1-5.46-2A70,70,0,0,0,54.2,83c0,17.72,6.27,33.05,16.89,44.15A14.17,14.17,0,0,1,74.68,122.52Z"/><path class="cls-3" d="M117,140.09A62.07,62.07,0,0,1,97.46,137a14.16,14.16,0,0,1-2.65,5.18,70.37,70.37,0,0,0,44.38,0,14.16,14.16,0,0,1-2.65-5.18A62.12,62.12,0,0,1,117,140.09Z"/><path class="cls-3" d="M162.15,65.67a12.42,12.42,0,0,1-2.84-5.12A161.76,161.76,0,0,1,117,65.87a161.81,161.81,0,0,1-42.31-5.32,12.42,12.42,0,0,1-2.84,5.12,163.77,163.77,0,0,0,41.65,5.86L87.27,119.6a14.15,14.15,0,0,1,5.55,2.8L117,78.06l24.18,44.34a14.15,14.15,0,0,1,5.55-2.8L120.5,71.51A163.73,163.73,0,0,0,162.15,65.67Z"/><path class="cls-3" d="M172.66,69.59A62.78,62.78,0,0,1,174.09,83c0,15.78-5.47,29.49-14.77,39.52a14.2,14.2,0,0,1,3.58,4.62c10.63-11.09,16.9-26.42,16.9-44.14a70,70,0,0,0-1.69-15.41A12.3,12.3,0,0,1,172.66,69.59Z"/></svg>