<svg id="Camada_1" data-name="Camada 1" xmlns="http://www.w3.org/2000/svg" viewBox="0 0 234 234"><defs><style>.cls-1{fill:#bbbcbc;}.cls-2{font-size:30px;font-family:Hind-Medium, Hind;}.cls-2,.cls-3{fill:#fff;}</style></defs><title>Prancheta 6</title><rect class="cls-1" x="-0.08" y="-0.08" width="234.17" height="234.17" rx="19.51" ry="19.51"/><text class="cls-2" transform="translate(54.38 188.38)">Gerenciar<tspan x="30.63" y="29">Itens</tspan></text><path class="cls-3" d="M177.86,119.94,180.54,103l-6.83-1.08A31.38,31.38,0,0,0,172,94.86l5.59-4.07L167.52,76.94,161.92,81a31.63,31.63,0,0,0-6.21-3.82l1.08-6.82L139.87,67.7l-1.08,6.82a31.66,31.66,0,0,0-7.08,1.72l-4.07-5.6L113.79,80.71l4.07,5.6a31.4,31.4,0,0,0-3.81,6.21l-6.83-1.08-2.67,16.92,6.83,1.08a31,31,0,0,0,1.71,7.08l-5.6,4.07,10.08,13.85,5.6-4.07a31,31,0,0,0,6.2,3.81L128.3,141l16.92,2.67,1.07-6.82a31.4,31.4,0,0,0,7.08-1.72l4.08,5.6,13.85-10.08-4.07-5.59a31.4,31.4,0,0,0,3.81-6.21Zm-20.2,6.53a25.7,25.7,0,1,1,5.66-35.89A25.69,25.69,0,0,1,157.66,126.47Z"/><path class="cls-3" d="M111.94,52.38l5.5-2-5-13.62-5.5,2a26.29,26.29,0,0,0-4.17-4.54l2.48-5.31L92.16,22.79l-2.47,5.3a26.6,26.6,0,0,0-6.16-.28l-2-5.49L67.91,27.27l2,5.5a25.93,25.93,0,0,0-4.54,4.17l-5.31-2.48L53.93,47.59l5.31,2.48A26.57,26.57,0,0,0,59,56.23l-5.5,2,5,13.62,5.49-2a26.33,26.33,0,0,0,4.17,4.54L65.61,79.7l13.13,6.13,2.48-5.31a26.49,26.49,0,0,0,6.15.28l2,5.49,13.62-5-2-5.5a25.93,25.93,0,0,0,4.54-4.17l5.31,2.48L117,61l-5.31-2.48A26,26,0,0,0,111.94,52.38ZM105.15,63.5A21.74,21.74,0,1,1,94.64,34.61,21.74,21.74,0,0,1,105.15,63.5Z"/><path class="cls-3" d="M85.43,69.24A14.93,14.93,0,1,1,99,60.62,14.83,14.83,0,0,1,85.43,69.24Zm0-24.16a9.25,9.25,0,1,0,3.89.87h0A9.14,9.14,0,0,0,85.46,45.08Z"/><path class="cls-3" d="M154,105.73a11.29,11.29,0,0,1-4.69,9.19h0a11.42,11.42,0,1,1-6.74-20.65,10.92,10.92,0,0,1,1.8.14,11.38,11.38,0,0,1,4,1.43V89.56a17.73,17.73,0,0,0-3.07-.79,17.16,17.16,0,1,0,13.71,12Z"/></svg>