<svg id="Camada_1" data-name="Camada 1" xmlns="http://www.w3.org/2000/svg" viewBox="0 0 234 234"><defs><style>.cls-1{fill:#0047bb;}.cls-2{font-size:30px;font-family:Hind-Medium, Hind;}.cls-2,.cls-3{fill:#fff;}</style></defs><title>Prancheta 1</title><rect class="cls-1" x="-0.08" y="-0.08" width="234.17" height="234.17" rx="19.51" ry="19.51"/><text class="cls-2" transform="translate(65.78 203.47)">Alergias</text><path class="cls-3" d="M125,152.66l-5.58-1.22c1.09-5,8.09-11.79,22.25-8.85,2.74.57,4.75.38,5.67-.54,1.18-1.2.92-3.87.79-4.46-1.21-5.45,2.92-14.06,5-17.9a6.36,6.36,0,0,1-.88-4.87,5.11,5.11,0,0,1,.76-1.67c-1.28-2.92-2.94-7.71-1.79-10.86a4.87,4.87,0,0,1,2.74-2.91,15.59,15.59,0,0,0,5.41-3.57c-1.94-2.7-9.09-10.32-15.37-16.6a2.87,2.87,0,0,1-.76-2.66c5.55-24-11.2-35.75-18.65-39.67-17.92-9.42-40.6-7.34-51.64,4.73l-4.21-3.85c12.7-13.89,38.4-16.5,58.5-5.94,17.49,9.19,25.59,25.72,21.9,44.45C165.56,92.84,165.41,94.65,165.3,96c-.32,3.81-5.54,7.06-8.83,8.51-.18,1.31,1,5,2.5,8a2.79,2.79,0,0,1,.25,2.41,2.5,2.5,0,0,1-1.43,1.44,5.17,5.17,0,0,0,.85,1.36,2.86,2.86,0,0,1,.26,3.23c-2.6,4.49-5.94,12.23-5.24,15.4.14.63,1.22,6.15-2.31,9.7-2.39,2.42-6,3.13-10.89,2.12C130.07,146,125.46,150.35,125,152.66Zm34.69-57.35Z"/><circle class="cls-3" cx="127.88" cy="113.82" r="5.71"/><circle class="cls-3" cx="110.75" cy="130.95" r="5.71"/><circle class="cls-3" cx="99.34" cy="90.98" r="5.71"/><circle class="cls-3" cx="116.46" cy="51.02" r="5.71"/><circle class="cls-3" cx="93.63" cy="62.44" r="5.71"/><path class="cls-3" d="M122.17,88.13a2.86,2.86,0,0,1,0-5.71c.25,0,4.75-.19,9.43-4.87a2.85,2.85,0,0,1,4,4C129.14,88.05,122.45,88.13,122.17,88.13Z"/></svg>