<svg id="Camada_1" data-name="Camada 1" xmlns="http://www.w3.org/2000/svg" viewBox="0 0 234 234"><defs><style>.cls-1{fill:#c4d600;}.cls-2{font-size:30px;font-family:Hind-Medium, Hind;}.cls-2,.cls-3{fill:#fff;}</style></defs><title>Prancheta 4</title><rect class="cls-1" x="-0.08" y="-0.08" width="234.17" height="234.17" rx="19.51" ry="19.51"/><text class="cls-2" transform="translate(76.06 188.97)">Dados<tspan x="-42.57" y="29">Monitorados</tspan></text><path class="cls-3" d="M168.38,58.6a2.86,2.86,0,1,1-2.85-2.86A2.84,2.84,0,0,1,168.38,58.6Zm-2.85,8.56A2.86,2.86,0,1,0,168.38,70,2.86,2.86,0,0,0,165.53,67.16Zm8.56-11.42h5.71v68.52H168.38v17.12H65.62V124.26H54.2V38.62H179.8l-5.71,5.71H157v74.22h17.12ZM59.91,67.12H75.27l7.47-14.94,7.48,14.94h10.83l4.09,4.09,12.21-18.33,7.12,14.24h10.84l4.53,4.53,4.52-4.53h6.9V44.33H59.91Zm0,31.44H75.27l7.47-14.94,7.48,14.94h10.83l4.09,4.09,12.21-18.33,7.12,14.24h10.84l4.53,4.53,4.52-4.53h6.9V72.83h-4.53l-6.89,6.89L133,72.83H121l-4.3-8.59L106,80.17l-7.33-7.34h-12l-4-7.89L78.8,72.83H59.91Zm91.35,20V104.27h-4.53l-6.89,6.89L133,104.27H121l-4.3-8.59L106,111.61l-7.33-7.34h-12l-4-7.89-3.94,7.89H59.91v14.28Zm11.41,5.71H71.33v11.41h91.34Z"/></svg>