<svg id="Camada_1" data-name="Camada 1" xmlns="http://www.w3.org/2000/svg" viewBox="0 0 234 234"><defs><style>.cls-1{fill:#9e007e;}.cls-2{font-size:30px;font-family:Hind-Medium, Hind;}.cls-2,.cls-3{fill:#fff;}</style></defs><title>Prancheta 2</title><rect class="cls-1" x="-0.08" y="-0.08" width="234.17" height="234.17" rx="19.51" ry="19.51"/><text class="cls-2" transform="translate(58.85 188.97)">Histórico<tspan x="-16.24" y="29">de doenças</tspan></text><rect class="cls-3" x="71.33" y="20.2" width="5.71" height="114.19"/><rect class="cls-3" x="156.97" y="54.45" width="5.71" height="91.35"/><rect class="cls-3" x="97.02" y="-5.49" width="5.71" height="57.09" transform="translate(76.82 122.92) rotate(-90)"/><rect class="cls-3" x="122.71" y="25.91" width="5.71" height="34.26" transform="translate(251.13 86.07) rotate(180)"/><rect class="cls-3" x="136.98" y="40.18" width="5.71" height="34.26" transform="translate(197.15 -82.53) rotate(90)"/><polygon class="cls-3" points="162.68 140.09 162.68 145.8 71.33 145.8 77.03 140.09 162.68 140.09"/><rect class="cls-3" x="119.3" y="36.49" width="48.45" height="5.71" transform="translate(69.86 -89.96) rotate(45)"/><rect class="cls-3" x="88.45" y="71.58" width="57.09" height="5.71"/><rect class="cls-3" x="88.45" y="88.71" width="57.09" height="5.71"/><rect class="cls-3" x="88.45" y="105.84" width="57.09" height="5.71"/><rect class="cls-3" x="88.45" y="122.97" width="57.09" height="5.71"/><rect class="cls-3" x="94.16" y="34.62" width="11.42" height="28.55"/><rect class="cls-3" x="94.16" y="34.62" width="11.42" height="28.55" transform="translate(148.76 -50.98) rotate(90)"/></svg>